<svg xmlns="http://www.w3.org/2000/svg" width="140" height="48" viewBox="0 0 140 48" fill="none"><path d="M139.023 18.8594V23.2336H132.919V18.8594H139.023ZM139.023 24.5884V47.9923H132.919V24.5884H135.955H139.023Z" fill="#285AA5"></path><path d="M113.441 39.2052V47.9923H107.275L107.205 18.8594H113.667L113.441 34.2658L121.914 24.5652H128.539L120.198 33.7007L129.176 47.9923H122.443L116.105 37.3858L113.441 39.2052Z" fill="#285AA5"></path><path d="M103.501 18.8594V23.2336H97.3965V18.8594H103.501ZM103.501 24.6194V47.9923H97.3965V24.6194H103.501Z" fill="#285AA5"></path><path d="M67.2246 36.4646V47.9923H60.9805V30.0233C60.9805 28.7381 60.965 27.662 60.9261 26.8027C60.8873 25.9433 60.8485 25.262 60.8019 24.5962H66.7198C66.7508 24.7278 66.8285 24.9369 66.8518 25.3859C66.8828 25.8349 66.9139 26.3381 66.9372 26.8956C66.9605 27.453 66.9916 27.9794 67.0149 28.4672C67.0382 28.9627 67.0459 29.311 67.0459 29.5278H67.1314C67.7216 27.9098 68.2652 26.7407 68.7545 26.0362C69.2282 25.3549 69.7952 24.8594 70.4475 24.542C71.0999 24.2246 71.9154 24.062 72.8939 24.062C73.6938 24.062 74.3384 24.1704 74.8277 24.3872V29.4891C73.8336 29.2723 72.9405 29.1639 72.1561 29.1639C70.6029 29.1639 69.3836 29.7833 68.5215 31.0065C67.6595 32.2298 67.2246 34.0491 67.2246 36.4646Z" fill="#285AA5"></path><path d="M16.1305 43.0373C20.1844 43.0373 22.9881 41.1251 24.5413 37.3083L30.366 39.3831C29.1078 42.2864 27.2673 44.4541 24.8442 45.8709C22.4211 47.2876 19.5088 47.9999 16.1227 47.9999C12.7056 47.9999 9.79322 47.3805 7.39345 46.1496C4.99369 44.9186 3.15309 43.1302 1.89496 40.7999C0.636831 38.4618 0 35.6593 0 32.3844C0 29.0786 0.605766 26.2915 1.8173 24.0076C3.02883 21.7315 4.8073 19.9973 7.16823 18.8051C9.52917 17.6128 12.4104 17.0244 15.8276 17.0244C19.5787 17.0244 22.6308 17.7367 24.9917 19.1534C27.3527 20.5702 29.0069 22.6528 29.9544 25.4012L24.0598 26.9186C23.5628 25.4089 22.5842 24.2089 21.1242 23.3186C19.6719 22.4128 17.9555 21.9715 15.9751 21.9715C12.9541 21.9715 10.6553 22.8541 9.09426 24.6193C7.53325 26.3844 6.74886 28.9702 6.74886 32.3767C6.74886 34.6838 7.1061 36.627 7.82836 38.2064C8.54286 39.7857 9.60683 40.9857 11.0048 41.8064C12.3949 42.627 14.1035 43.0373 16.1305 43.0373Z" fill="#285AA5"></path><path d="M85.7391 36.4798V47.9921H79.4873V30.0463C79.4873 28.7611 79.4717 27.685 79.4329 26.8256C79.3941 25.9663 79.363 25.254 79.3164 24.5882H85.2809C85.3119 24.7198 85.3352 24.9598 85.3585 25.4088C85.3896 25.8579 85.4207 26.3611 85.444 26.9185C85.475 27.4759 85.4983 28.0024 85.5216 28.4901C85.5449 28.9856 85.5527 29.334 85.5527 29.5508H85.6381C86.2284 27.9327 86.772 26.7714 87.2613 26.0592C87.735 25.3779 88.3019 24.8824 88.9543 24.565C89.6067 24.2475 90.4221 24.085 91.4007 24.085C92.2006 24.085 92.8452 24.1933 93.3344 24.4101V29.5043C92.3404 29.2875 91.4473 29.1792 90.6629 29.1792C89.1019 29.1792 87.8903 29.7908 87.0283 31.0217C86.174 32.245 85.7391 34.0721 85.7391 36.4798Z" fill="#285AA5"></path><path d="M56.0881 42.4258V27.6155C54.3484 29.2413 52.2282 30.1935 49.8751 30.8981V36.8903C49.8751 38.8335 49.4169 40.4206 48.4927 41.6671C47.5685 42.9058 46.357 43.5252 44.8581 43.5252C43.4446 43.5252 42.3807 43.0219 41.6739 42.0077C40.9672 40.9935 40.61 39.4839 40.61 37.471V30.9058C38.249 30.1781 36.1366 29.2723 34.397 27.6232V39.1742C34.397 42.0619 35.0726 44.2606 36.4317 45.7548C37.7908 47.249 39.7324 48 42.2642 48C44.0193 48 45.5337 47.6052 46.8074 46.8077C48.0811 46.0103 49.1295 44.7484 49.9527 42.9987H50.0615C50.0615 43.4942 50.0848 44.129 50.1236 44.8955C50.1702 45.6619 50.4187 46.9781 50.5041 48H56.2434C56.1813 47.2645 56.1424 46.0413 56.1114 45.1819C56.1036 44.3226 56.0881 43.4013 56.0881 42.4258Z" fill="#285AA5"></path><path d="M54.4646 19.8656C50.9154 21.2282 46.9003 21.3521 43.157 20.4076C40.8116 19.7805 38.536 18.774 36.5091 17.365C36.5091 17.4502 36.5013 17.5353 36.4935 17.6127C36.4159 19.2308 36.5324 20.8643 36.9051 22.436C37.2701 23.9998 37.8992 25.5172 38.8545 26.7792C39.7942 28.0566 41.1067 29.0321 42.6133 29.4966C44.12 29.9456 45.7664 29.8682 47.2808 29.3263C48.803 28.7998 50.1932 27.8863 51.3892 26.7714C53.6181 24.6889 55.2179 21.9792 56.2198 19.0682C56.0644 19.1456 55.9169 19.2231 55.7615 19.3005C55.3499 19.5327 54.9073 19.6876 54.4646 19.8656Z" fill="#F8AF2C"></path><path d="M46.9623 4.30459C47.5836 4.59878 48.2282 4.84652 48.8884 5.0633C50.2086 5.47362 51.5832 5.7833 52.9889 5.79104C53.6879 5.79104 54.3946 5.71362 55.047 5.47362C55.2877 5.3962 55.5052 5.27233 55.7149 5.14072C55.4897 4.74588 55.2489 4.35878 54.9693 3.99491C53.9675 2.65556 52.5463 1.61814 50.9386 1.15362C50.131 0.936847 49.2922 0.851685 48.4612 0.905878C47.6302 0.960072 46.8148 1.16911 46.0381 1.4633C45.4091 1.71104 44.8111 2.02846 44.2441 2.39233C44.5315 2.70201 44.8577 2.98072 45.2072 3.24394C45.7586 3.65427 46.3488 4.00265 46.9623 4.30459Z" fill="#F8AF2C"></path><path d="M58.6971 17.3806L58.1379 17.8142C57.9515 17.9535 57.7729 18.1084 57.571 18.24L57.0351 18.5729C56.1187 21.8477 54.48 24.9755 52.0104 27.4142C51.2726 28.1342 50.4571 28.7845 49.5718 29.3264C55.5673 27.5613 59.9863 22.1651 60.2892 15.7084C59.9552 16.1264 59.5902 16.529 59.2019 16.9006L58.6971 17.3806Z" fill="#F8AF2C"></path><path d="M57.0117 8.70973C56.7477 7.57166 56.3438 6.45683 55.7847 5.42715C55.575 5.57425 55.3498 5.69812 55.109 5.78328C54.4411 6.06199 53.7266 6.20134 53.0121 6.27102C52.2976 6.34844 51.5676 6.34844 50.8453 6.29425C50.1231 6.23231 49.4086 6.10844 48.7019 5.93037C48.0029 5.74457 47.3117 5.51231 46.6283 5.2336C45.9526 4.94715 45.3003 4.6065 44.679 4.19618C44.2363 3.90199 43.8014 3.56908 43.4131 3.1665C42.9083 3.5536 42.4423 3.97941 41.9996 4.42844C40.8502 5.60521 39.9027 6.96779 39.1261 8.41554C38.73 9.13554 38.3961 9.87876 38.0932 10.6375C37.7903 11.3962 37.5263 12.1704 37.3088 12.9601C37.1302 13.6104 36.9748 14.2607 36.8506 14.9188C38.7766 16.6762 41.1531 17.9923 43.6849 18.8207C45.3701 19.3549 47.1253 19.6878 48.9116 19.7962C50.69 19.8968 52.4996 19.7575 54.247 19.3007C54.6819 19.1691 55.1245 19.0684 55.5362 18.8826C55.8546 18.7588 56.1808 18.6426 56.4914 18.4878C56.9651 16.9239 57.2836 15.3059 57.3845 13.6646C57.4699 12.0155 57.3768 10.3355 57.0117 8.70973Z" fill="#F8AF2C"></path><path d="M56.0957 5.26457C56.6704 6.30973 57.0898 7.4478 57.3538 8.61683C58.0916 11.7136 57.8975 14.9884 57.051 18.0542L57.1674 18.0001C57.3694 17.8994 57.5558 17.7678 57.7499 17.6517L58.3324 17.2878L58.8605 16.862C59.3731 16.4439 59.839 15.9794 60.2506 15.4684C60.2584 15.3678 60.2662 15.2672 60.2662 15.1588C60.3827 11.2181 58.9537 7.59489 56.5384 4.85425C56.4452 4.97038 56.3365 5.07876 56.2277 5.17167C56.1811 5.21038 56.1423 5.24135 56.0957 5.26457Z" fill="#F8AF2C"></path><path d="M43.4288 1.1071C43.522 1.36258 43.6308 1.64129 43.8249 1.88904C43.8638 1.94323 43.9026 1.98968 43.9492 2.04387C44.586 1.69549 45.2461 1.39355 45.9373 1.17678C47.4673 0.665807 49.1526 0.565162 50.7058 0.967744C49.0594 0.348388 47.2731 0 45.4092 0C44.7879 0 44.1822 0.0387097 43.5842 0.116129C43.522 0.201291 43.4677 0.286452 43.4366 0.387097C43.3667 0.603872 43.3667 0.843873 43.4288 1.1071Z" fill="#F8AF2C"></path><path d="M55.0781 3.92535C55.3577 4.28148 55.6217 4.66083 55.8547 5.05567C55.8936 5.03245 55.9246 5.00922 55.9557 4.97825C56.0644 4.87761 56.1654 4.76148 56.2508 4.64535C55.4742 3.83245 54.6121 3.11245 53.6802 2.48535C54.1927 2.91116 54.6665 3.39116 55.0781 3.92535Z" fill="#F8AF2C"></path><path d="M35.119 12.9213C35.3131 13.169 35.5151 13.409 35.7247 13.6413C35.8179 13.2387 35.9267 12.8361 36.0432 12.4335C36.5635 10.7845 37.2547 9.18192 38.1789 7.71095C39.0953 6.24773 40.2136 4.90063 41.5106 3.76256C41.9921 3.33676 42.5047 2.94192 43.0405 2.59353C43.0172 2.57031 42.9939 2.54708 42.9784 2.51611C42.7299 2.21418 42.528 1.84256 42.3726 1.43998C42.2639 1.09934 42.2173 0.719983 42.2639 0.332886C38.1944 1.19998 34.7384 3.71611 32.6338 7.13805C32.6804 7.59482 32.758 8.0516 32.8668 8.50063C33.2629 10.08 34.055 11.5897 35.119 12.9213Z" fill="#F8AF2C"></path><path d="M35.6704 22.7459C35.2432 21.0427 35.0801 19.293 35.1578 17.551C35.1733 17.1639 35.2121 16.7768 35.251 16.3897C34.5443 15.8014 33.8764 15.1588 33.2551 14.462C32.3464 13.4168 31.562 12.2478 30.9718 10.9626C30.6223 12.2246 30.4359 13.5562 30.4359 14.9343C30.4359 20.733 33.7599 25.7575 38.606 28.2349C38.373 27.9949 38.1633 27.7472 37.9614 27.4917C36.8431 26.0827 36.113 24.4336 35.6704 22.7459Z" fill="#F8AF2C"></path></svg>